<svg width="20" height="20" viewBox="0 0 20 20" fill="none" xmlns="http://www.w3.org/2000/svg">
<mask id="mask0_360_774" style="mask-type:luminance" maskUnits="userSpaceOnUse" x="0" y="0" width="20" height="20">
<path d="M20 0H0V20H20V0Z" fill="white"/>
</mask>
<g mask="url(#mask0_360_774)">
<path d="M15.1167 18.0167C14.3833 18.2334 13.5167 18.3334 12.5 18.3334H7.49997C6.4833 18.3334 5.61663 18.2334 4.8833 18.0167C5.06663 15.85 7.29163 14.1416 10 14.1416C12.7083 14.1416 14.9333 15.85 15.1167 18.0167Z" stroke="black" stroke-width="1.5" stroke-linecap="round" stroke-linejoin="round"/>
<path d="M12.5001 1.66675H7.50008C3.33341 1.66675 1.66675 3.33341 1.66675 7.50008V12.5001C1.66675 15.6501 2.61675 17.3751 4.88341 18.0167C5.06675 15.8501 7.29175 14.1417 10.0001 14.1417C12.7084 14.1417 14.9334 15.8501 15.1167 18.0167C17.3834 17.3751 18.3334 15.6501 18.3334 12.5001V7.50008C18.3334 3.33341 16.6667 1.66675 12.5001 1.66675ZM10.0001 11.8084C8.35008 11.8084 7.01675 10.4667 7.01675 8.81675C7.01675 7.16676 8.35008 5.83341 10.0001 5.83341C11.6501 5.83341 12.9834 7.16676 12.9834 8.81675C12.9834 10.4667 11.6501 11.8084 10.0001 11.8084Z" stroke="black" stroke-width="1.5" stroke-linecap="round" stroke-linejoin="round"/>
<path d="M12.9833 8.81683C12.9833 10.4668 11.6499 11.8085 9.99992 11.8085C8.34992 11.8085 7.0166 10.4668 7.0166 8.81683C7.0166 7.16685 8.34992 5.8335 9.99992 5.8335C11.6499 5.8335 12.9833 7.16685 12.9833 8.81683Z" stroke="black" stroke-width="1.5" stroke-linecap="round" stroke-linejoin="round"/>
</g>
</svg>
